<?xml version="1.0" encoding="utf-8"?>
<!-- Generator: Adobe Illustrator 27.8.1, SVG Export Plug-In . SVG Version: 6.00 Build 0)  -->
<svg version="1.1" id="Layer_1" xmlns="http://www.w3.org/2000/svg" xmlns:xlink="http://www.w3.org/1999/xlink" x="0px" y="0px"
	 viewBox="0 0 32 32" style="enable-background:new 0 0 32 32;" xml:space="preserve">
<style type="text/css">
	.st0{fill:#FFFFFF;}
</style>
<g>
	<g>
		<circle cx="16" cy="15.98" r="15.96"/>
	</g>
	<path class="st0" d="M31.05,10.6L31.05,10.6C31.05,10.59,31.05,10.59,31.05,10.6c-0.79-2.2-2.04-4.22-3.74-5.91
		c-1.09-1.09-2.31-2-3.63-2.72l-0.01-0.02c0,0,0,0-0.01,0.01C21.34,0.68,18.72,0,16,0c-2.72,0-5.34,0.68-7.67,1.96
		c0,0,0,0-0.01-0.01L8.31,1.97C7,2.69,5.78,3.6,4.69,4.69c-1.7,1.7-2.95,3.71-3.73,5.91c0,0,0,0,0,0l0,0.01C0.34,12.31,0,14.13,0,16
		c0,4.27,1.66,8.29,4.69,11.31C7.71,30.34,11.73,32,16,32c4.27,0,8.29-1.66,11.31-4.69C30.34,24.29,32,20.27,32,16
		C32,14.13,31.66,12.31,31.05,10.6z M6.15,19.39c-0.94,0.04-1.91,0.29-2.9,0.74c-0.61-1.36-0.96-2.83-0.96-4.38
		c0-0.04,0.01-0.09,0.01-0.13c1.17-0.15,2.28-0.1,3.31,0.16C5.59,16,5.57,16.23,5.57,16.47C5.57,17.49,5.78,18.47,6.15,19.39z
		 M5.69,16.47c0-0.22,0.02-0.45,0.04-0.67c0.59,0.16,1.16,0.38,1.69,0.68c0.31,0.17,0.6,0.36,0.87,0.56
		c-0.04,0.28-0.07,0.56-0.07,0.85c0,0.65,0.12,1.29,0.33,1.88c-0.29-0.11-0.6-0.2-0.92-0.27c-0.44-0.09-0.89-0.12-1.35-0.11
		C5.91,18.48,5.69,17.49,5.69,16.47z M17.93,22.1c-0.11-0.03-0.23-0.05-0.36-0.07c-0.08-0.01-0.15-0.03-0.23-0.04
		c-0.13-0.02-0.27-0.03-0.41-0.04c0.03-0.94,0.08-2,0.16-3.17c0.52,0.09,0.99,0.24,1.41,0.44c-0.21,1.11-0.34,2.11-0.41,2.91
		C18.04,22.13,17.99,22.11,17.93,22.1z M18.08,22.27c-0.08,0.89-0.1,1.51-0.11,1.72c-0.08,0.03-0.16,0.06-0.25,0.09
		c-0.07,0.02-0.14,0.04-0.21,0.05c-0.18,0.05-0.36,0.08-0.55,0.11c-0.03,0.01-0.07,0-0.11,0.01c0.01-0.29,0.02-0.62,0.03-1
		c0.01-0.36,0.02-0.76,0.03-1.19C17.35,22.12,17.74,22.18,18.08,22.27z M11.77,21.22c0.06-0.35,0.2-0.69,0.44-0.99
		c0.28,0.97,0.44,1.81,0.53,2.41c-0.03,0.02-0.06,0.04-0.08,0.06c-0.06,0.05-0.1,0.11-0.14,0.16c-0.02,0.02-0.04,0.05-0.05,0.07
		c0,0-0.01,0.01-0.01,0.01C12.36,22.63,12.14,21.99,11.77,21.22z M12.32,22.92c-0.37-0.42-0.59-0.9-0.59-1.41
		c0-0.02,0.01-0.04,0.01-0.07C12.04,22.09,12.23,22.62,12.32,22.92z M11.25,17.33c0.36-0.47,0.82-0.88,1.35-1.22
		c0.32,1.06,0.57,2.09,0.75,3.05c-0.43,0.22-0.8,0.49-1.09,0.8C12.02,19.14,11.69,18.24,11.25,17.33z M12.17,20.08
		c-0.24,0.29-0.41,0.6-0.49,0.94c-0.3-0.61-0.7-1.29-1.19-1.96c0.11-0.58,0.34-1.12,0.69-1.6C11.6,18.36,11.93,19.26,12.17,20.08z
		 M11.64,21.24c-0.01,0.09-0.04,0.18-0.04,0.27c0,0.2,0.03,0.39,0.09,0.58c-0.23-0.29-0.58-0.67-1.04-1.06
		c-0.15-0.41-0.25-0.83-0.25-1.28c0-0.17,0.04-0.33,0.06-0.5C10.96,19.94,11.35,20.63,11.64,21.24z M11.83,22.48
		c-0.09-0.02-0.21-0.04-0.36-0.06c-0.31-0.35-0.55-0.74-0.73-1.15C11.3,21.77,11.68,22.26,11.83,22.48z M11.94,22.63
		c0.18,0.29,0.43,0.55,0.73,0.78c-0.4-0.24-0.74-0.53-1.05-0.84C11.8,22.6,11.91,22.63,11.94,22.63z M12.54,23.15
		c0.01-0.13,0.09-0.25,0.23-0.37c0.04,0.27,0.07,0.49,0.08,0.61C12.74,23.32,12.63,23.24,12.54,23.15z M12.31,20.11
		c0.28-0.32,0.64-0.59,1.07-0.82c0.2,1.1,0.33,2.09,0.4,2.88c-0.08,0.02-0.16,0.05-0.23,0.07c-0.07,0.02-0.13,0.04-0.19,0.07
		c-0.09,0.03-0.17,0.07-0.25,0.11c-0.05,0.02-0.1,0.05-0.15,0.08c-0.04,0.02-0.07,0.04-0.11,0.06
		C12.76,21.94,12.59,21.09,12.31,20.11z M12.71,16.04c0.54-0.32,1.16-0.56,1.82-0.71c0.16,1.15,0.28,2.28,0.36,3.33
		c-0.52,0.09-1,0.24-1.43,0.44C13.29,18.14,13.04,17.1,12.71,16.04z M14.66,15.3c0.43-0.09,0.87-0.15,1.34-0.15
		c0.46,0,0.91,0.06,1.34,0.15c-0.16,1.16-0.28,2.28-0.36,3.34c-0.32-0.05-0.64-0.08-0.98-0.08c-0.34,0-0.66,0.03-0.98,0.08
		C14.94,17.58,14.83,16.45,14.66,15.3z M20.26,21.44c0,0.02,0.01,0.04,0.01,0.07c0,0.52-0.23,1-0.59,1.41
		C19.77,22.62,19.96,22.09,20.26,21.44z M19.54,22.95c0,0-0.01-0.01-0.01-0.01c-0.01-0.02-0.04-0.05-0.05-0.07
		c-0.04-0.05-0.08-0.11-0.14-0.16c-0.02-0.02-0.05-0.04-0.08-0.06c0.09-0.59,0.26-1.44,0.53-2.41c0.23,0.3,0.38,0.64,0.44,0.99
		C19.86,21.99,19.64,22.63,19.54,22.95z M19.83,20.08c0.24-0.82,0.57-1.72,1-2.63c0.34,0.49,0.58,1.02,0.69,1.6
		c-0.5,0.67-0.89,1.35-1.19,1.96C20.24,20.68,20.07,20.37,19.83,20.08z M19.73,19.97c-0.29-0.31-0.66-0.58-1.09-0.8
		c0.18-0.96,0.42-1.99,0.75-3.05c0.54,0.34,1,0.75,1.35,1.22C20.31,18.24,19.98,19.14,19.73,19.97z M18.53,19.1
		c-0.43-0.2-0.91-0.35-1.43-0.44c0.08-1.05,0.2-2.18,0.36-3.33c0.67,0.15,1.28,0.39,1.82,0.71C18.96,17.1,18.71,18.14,18.53,19.1z
		 M18.21,22.31c0.38,0.11,0.69,0.24,0.91,0.39c-0.07,0.44-0.09,0.73-0.1,0.81c-0.27,0.18-0.58,0.32-0.91,0.45
		C18.11,23.71,18.13,23.13,18.21,22.31z M19.04,22.49c-0.05-0.03-0.1-0.05-0.15-0.08c-0.08-0.04-0.16-0.07-0.25-0.11
		c-0.06-0.02-0.12-0.05-0.19-0.07c-0.07-0.02-0.15-0.05-0.23-0.07c0.08-0.79,0.2-1.78,0.4-2.88c0.43,0.23,0.79,0.5,1.07,0.82
		c-0.28,0.98-0.45,1.83-0.55,2.44C19.11,22.53,19.07,22.51,19.04,22.49z M19.23,22.78c0.14,0.12,0.22,0.24,0.23,0.37
		c-0.09,0.09-0.2,0.17-0.31,0.25C19.17,23.27,19.19,23.05,19.23,22.78z M20.06,22.63c0.03-0.01,0.14-0.03,0.32-0.06
		c-0.29,0.3-0.61,0.56-0.98,0.8h0v0c-0.02,0.01-0.04,0.03-0.07,0.05C19.63,23.18,19.88,22.92,20.06,22.63z M20.17,22.48
		c0.16-0.22,0.53-0.7,1.09-1.21c-0.18,0.42-0.42,0.8-0.73,1.15C20.38,22.44,20.26,22.46,20.17,22.48z M20.31,22.08
		c0.06-0.19,0.09-0.38,0.09-0.58c0-0.09-0.03-0.18-0.04-0.27c0.29-0.61,0.68-1.3,1.18-1.99c0.02,0.17,0.06,0.33,0.06,0.5
		c0,0.45-0.1,0.87-0.25,1.28C20.89,21.41,20.54,21.8,20.31,22.08z M20.89,17.32c0.03-0.06,0.05-0.11,0.08-0.17
		c0.41-0.82,0.95-1.69,1.62-2.51c0.49,0.71,0.82,1.5,0.97,2.34c-0.77,0.57-1.41,1.24-1.94,1.93C21.5,18.34,21.25,17.81,20.89,17.32z
		 M20.86,17.1c-0.02,0.03-0.03,0.07-0.05,0.1c-0.37-0.47-0.84-0.88-1.38-1.21c0.32-1.02,0.73-2.1,1.27-3.17
		c0.72,0.48,1.33,1.06,1.82,1.72C21.9,15.29,21.34,16.14,20.86,17.1z M19.33,15.92c-0.55-0.33-1.17-0.56-1.85-0.71
		c0.13-0.88,0.28-1.78,0.47-2.68c0.06-0.28,0.14-0.55,0.2-0.82c0.89,0.22,1.71,0.58,2.43,1.04C20.11,13.71,19.69,14.77,19.33,15.92z
		 M17.83,12.5c-0.19,0.9-0.35,1.79-0.47,2.67c-0.44-0.09-0.89-0.15-1.36-0.15s-0.92,0.06-1.36,0.15c-0.13-0.88-0.28-1.77-0.47-2.67
		c-0.06-0.28-0.14-0.55-0.2-0.82c0.65-0.15,1.33-0.24,2.03-0.24s1.39,0.09,2.03,0.24C17.97,11.95,17.89,12.22,17.83,12.5z
		 M14.05,12.53c0.19,0.9,0.35,1.79,0.47,2.68c-0.67,0.15-1.3,0.39-1.85,0.71c-0.36-1.15-0.78-2.2-1.26-3.17
		c0.72-0.46,1.54-0.82,2.43-1.04C13.91,11.98,13.98,12.24,14.05,12.53z M12.57,15.99c-0.54,0.34-1.01,0.74-1.38,1.21
		c-0.02-0.03-0.03-0.07-0.05-0.1c-0.48-0.96-1.04-1.82-1.66-2.57c0.48-0.66,1.09-1.24,1.82-1.72
		C11.83,13.89,12.25,14.97,12.57,15.99z M11.03,17.15c0.03,0.06,0.05,0.11,0.08,0.17c-0.35,0.48-0.61,1.02-0.73,1.59
		c-0.53-0.69-1.17-1.36-1.94-1.93c0.14-0.84,0.47-1.63,0.97-2.34C10.08,15.47,10.61,16.33,11.03,17.15z M10.35,19.1
		c-0.04,0.21-0.08,0.42-0.08,0.64c0,0.39,0.07,0.76,0.18,1.12c-0.48-0.38-1.06-0.76-1.74-1.03c-0.23-0.61-0.35-1.26-0.35-1.94
		c0-0.26,0.02-0.51,0.06-0.76C9.18,17.71,9.83,18.39,10.35,19.1z M10.54,21.08c0.17,0.47,0.41,0.92,0.74,1.32
		c-0.21-0.02-0.47-0.03-0.75-0.02C9.75,21.71,9.16,20.9,8.78,20C9.48,20.3,10.07,20.68,10.54,21.08z M11.41,22.54
		c0.56,0.62,1.29,1.11,2.14,1.45c-1.1-0.31-2.08-0.83-2.89-1.49C10.96,22.49,11.21,22.51,11.41,22.54z M12.98,23.5
		c-0.01-0.08-0.03-0.37-0.1-0.81c0.22-0.15,0.53-0.28,0.91-0.39c0.07,0.82,0.1,1.4,0.1,1.64C13.57,23.83,13.25,23.68,12.98,23.5z
		 M13.49,19.23c0.42-0.2,0.9-0.35,1.41-0.44c0.09,1.16,0.13,2.23,0.16,3.17c-0.14,0.01-0.28,0.03-0.41,0.04
		c-0.08,0.01-0.16,0.03-0.23,0.04c-0.12,0.02-0.24,0.04-0.35,0.07c-0.06,0.01-0.11,0.02-0.16,0.04
		C13.83,21.34,13.7,20.34,13.49,19.23z M15.07,22.08c0.01,0.42,0.02,0.83,0.03,1.19c0.01,0.38,0.02,0.71,0.03,1
		c-0.04,0-0.07,0-0.11-0.01c-0.19-0.03-0.37-0.07-0.55-0.11c-0.07-0.02-0.14-0.03-0.21-0.05c-0.09-0.03-0.16-0.06-0.25-0.09
		c0-0.21-0.02-0.83-0.11-1.72C14.26,22.18,14.65,22.12,15.07,22.08z M15.03,18.76c0.31-0.05,0.63-0.08,0.97-0.08
		c0.33,0,0.66,0.03,0.97,0.08c-0.09,1.17-0.13,2.24-0.16,3.18c-0.04,0-0.07-0.01-0.11-0.01c-0.22-0.02-0.46-0.02-0.7-0.02
		c0,0,0,0,0,0h0c0,0,0,0,0,0c-0.24,0-0.47,0.01-0.7,0.02c-0.04,0-0.07,0.01-0.11,0.01C15.17,21,15.12,19.93,15.03,18.76z
		 M18.37,24.15L18.37,24.15L18.37,24.15c0.15-0.04,0.29-0.09,0.43-0.14l0,0.01c0.01,0,0.47-0.06,1.16,0.61
		c-1.2,0.43-2.52,0.67-3.89,0.68v-0.84c0,0,0.01,0,0.01,0c0.02,0,0.03,0,0.04,0h0.01C16.96,24.45,17.75,24.34,18.37,24.15z
		 M18.45,23.99c0.85-0.33,1.58-0.83,2.14-1.45c0.2-0.03,0.46-0.04,0.75-0.05C20.53,23.16,19.55,23.67,18.45,23.99z M20.72,22.4
		c0.33-0.4,0.57-0.85,0.74-1.32c0.47-0.4,1.06-0.78,1.75-1.08c-0.37,0.9-0.97,1.71-1.74,2.37C21.19,22.37,20.94,22.38,20.72,22.4z
		 M21.55,20.86c0.11-0.36,0.18-0.73,0.18-1.12c0-0.22-0.04-0.43-0.08-0.64c0.53-0.7,1.17-1.39,1.94-1.97
		c0.04,0.25,0.06,0.5,0.06,0.76c0,0.68-0.13,1.33-0.35,1.94C22.6,20.1,22.03,20.47,21.55,20.86z M22.68,14.54
		c0.67-0.8,1.47-1.55,2.45-2.17c0.61,1,1.01,2.12,1.13,3.3c-0.61,0.16-1.19,0.39-1.75,0.69c-0.3,0.16-0.57,0.34-0.84,0.53
		C23.52,16.05,23.18,15.25,22.68,14.54z M24.47,12.65c-0.68,0.5-1.3,1.1-1.87,1.78c-0.49-0.67-1.11-1.25-1.84-1.73
		c0.52-1.03,1.15-2.03,1.92-2.95c0.96,0.7,1.77,1.55,2.38,2.51C24.86,12.38,24.67,12.51,24.47,12.65z M22.4,9.87
		c-0.65,0.81-1.23,1.74-1.75,2.76c-0.73-0.46-1.56-0.82-2.46-1.04c0.31-1.26,0.69-2.42,1.12-3.48c1.2,0.35,2.31,0.88,3.26,1.56
		C22.51,9.73,22.45,9.8,22.4,9.87z M18.06,11.56c-0.66-0.15-1.35-0.24-2.06-0.24s-1.41,0.09-2.06,0.24
		c-0.32-1.27-0.69-2.43-1.12-3.49c1-0.28,2.07-0.44,3.19-0.44s2.18,0.16,3.19,0.44C18.75,9.13,18.38,10.29,18.06,11.56z
		 M13.81,11.58c-0.9,0.22-1.72,0.58-2.46,1.04c-0.52-1.03-1.1-1.95-1.75-2.76C9.55,9.8,9.49,9.73,9.43,9.66
		c0.96-0.68,2.06-1.21,3.26-1.56C13.13,9.16,13.5,10.32,13.81,11.58z M11.24,12.7c-0.73,0.48-1.36,1.07-1.84,1.73
		c-0.57-0.68-1.19-1.28-1.87-1.78c-0.19-0.14-0.39-0.27-0.59-0.4c0.61-0.96,1.42-1.81,2.38-2.51C10.09,10.67,10.72,11.68,11.24,12.7
		z M9.32,14.54c-0.5,0.71-0.84,1.51-1,2.36c-0.27-0.19-0.54-0.37-0.84-0.53c-0.56-0.3-1.14-0.53-1.75-0.69
		c0.12-1.18,0.52-2.3,1.13-3.3C7.85,13,8.65,13.75,9.32,14.54z M7.61,19.62c0.36,0.07,0.69,0.18,1.01,0.3
		c0.36,0.93,0.96,1.76,1.73,2.45c-0.34,0.01-0.7,0.05-1.1,0.13c-0.18,0.04-0.38,0.09-0.58,0.15c-1.02-0.89-1.81-1.96-2.33-3.15
		C6.77,19.51,7.19,19.54,7.61,19.62z M9.26,22.64c0.44-0.1,0.84-0.13,1.2-0.14c0.7,0.6,1.53,1.08,2.45,1.42
		c-0.23,0.05-0.59,0.21-1.02,0.65c-1.17-0.44-2.22-1.05-3.12-1.81C8.95,22.72,9.11,22.67,9.26,22.64z M11.94,24.72
		c1.23,0.45,2.58,0.7,4,0.7v2.33c-1.88-0.01-3.68-0.35-5.31-0.96C11.1,25.79,11.55,25.13,11.94,24.72z M12.04,24.63
		c0.68-0.67,1.15-0.61,1.16-0.61l0-0.01c0.14,0.05,0.28,0.09,0.42,0.13l0,0l0.01,0c0.62,0.19,1.41,0.3,2.24,0.31h0.01
		c0.02,0,0.03,0,0.04,0c0,0,0.01,0,0.01,0v0.84C14.56,25.29,13.24,25.06,12.04,24.63z M15.26,24.27c-0.01-0.29-0.02-0.62-0.03-1.01
		c-0.01-0.36-0.02-0.77-0.03-1.2c0.04,0,0.07-0.01,0.11-0.01c0.22-0.02,0.45-0.02,0.69-0.02s0.47,0.01,0.69,0.02
		c0.04,0,0.07,0.01,0.11,0.01c-0.01,0.43-0.02,0.83-0.03,1.2c-0.01,0.39-0.02,0.72-0.03,1.01c-0.24,0.03-0.48,0.06-0.74,0.06
		c0,0,0,0,0,0c0,0,0,0,0,0C15.75,24.33,15.51,24.3,15.26,24.27z M16.06,25.43c1.42-0.01,2.77-0.26,4-0.7
		c0.39,0.41,0.84,1.06,1.32,2.07c-1.63,0.61-3.43,0.95-5.31,0.96V25.43z M19.08,23.92c0.92-0.34,1.76-0.82,2.45-1.42
		c0.36,0.01,0.76,0.05,1.2,0.14c0.15,0.03,0.32,0.08,0.49,0.13c-0.9,0.75-1.95,1.37-3.12,1.81C19.67,24.13,19.31,23.97,19.08,23.92z
		 M22.76,22.51c-0.4-0.09-0.76-0.12-1.1-0.13c0.77-0.69,1.37-1.53,1.73-2.45c0.32-0.12,0.65-0.23,1.01-0.3
		c0.41-0.08,0.84-0.11,1.27-0.1c-0.51,1.19-1.31,2.26-2.33,3.15C23.13,22.6,22.94,22.55,22.76,22.51z M24.37,19.5
		c-0.33,0.07-0.63,0.16-0.92,0.27c0.21-0.6,0.33-1.23,0.33-1.88c0-0.29-0.03-0.57-0.07-0.85c0.28-0.2,0.56-0.39,0.87-0.56
		c0.54-0.29,1.11-0.52,1.69-0.68c0.02,0.22,0.04,0.44,0.04,0.67c0,1.03-0.22,2.01-0.59,2.93C25.26,19.38,24.81,19.41,24.37,19.5z
		 M26.43,16.47c0-0.23-0.02-0.46-0.04-0.69c1.03-0.26,2.14-0.31,3.31-0.16c0,0.04,0.01,0.09,0.01,0.13c0,1.55-0.35,3.02-0.96,4.38
		c-0.99-0.45-1.96-0.7-2.9-0.74C26.22,18.47,26.43,17.49,26.43,16.47z M26.38,15.65c-0.13-1.2-0.53-2.32-1.15-3.34
		c0.95-0.59,2.06-1.05,3.34-1.33c0.69,1.39,1.08,2.91,1.12,4.5C28.52,15.34,27.42,15.39,26.38,15.65z M25.16,12.19
		c-0.62-0.97-1.44-1.82-2.41-2.54c0.8-0.94,1.74-1.78,2.85-2.45c1.21,1.04,2.2,2.29,2.9,3.66C27.3,11.12,26.18,11.56,25.16,12.19z
		 M22.65,9.57c-0.97-0.69-2.08-1.23-3.3-1.58c0.53-1.27,1.14-2.39,1.83-3.35c1.62,0.58,3.08,1.43,4.32,2.48
		C24.46,7.75,23.5,8.57,22.65,9.57z M19.23,7.95C18.21,7.66,17.13,7.5,16,7.5c-1.13,0-2.21,0.16-3.23,0.45
		c-0.53-1.27-1.13-2.39-1.83-3.35c1.57-0.55,3.27-0.86,5.06-0.86s3.49,0.31,5.06,0.86C20.37,5.56,19.76,6.68,19.23,7.95z
		 M12.65,7.99c-1.21,0.36-2.33,0.89-3.3,1.58c-0.85-1-1.8-1.82-2.85-2.45c1.24-1.05,2.7-1.89,4.32-2.48
		C11.51,5.6,12.12,6.72,12.65,7.99z M9.24,9.65c-0.97,0.71-1.79,1.57-2.41,2.54c-1.01-0.63-2.13-1.06-3.35-1.32
		c0.7-1.38,1.69-2.62,2.9-3.66C7.5,7.87,8.44,8.71,9.24,9.65z M6.76,12.31c-0.62,1.01-1.02,2.14-1.15,3.34
		c-1.03-0.26-2.14-0.31-3.31-0.16c0.04-1.6,0.43-3.12,1.12-4.5C4.71,11.26,5.81,11.72,6.76,12.31z M2.18,15.5
		c-0.66,0.09-1.35,0.25-2.05,0.48c0-1.85,0.34-3.61,0.92-5.26c0.8,0.01,1.55,0.1,2.25,0.24C2.61,12.36,2.22,13.89,2.18,15.5z
		 M2.17,15.63c0,0.04-0.01,0.08-0.01,0.12c0,1.56,0.35,3.06,0.97,4.43c-0.67,0.31-1.35,0.71-2.05,1.21
		c-0.6-1.65-0.94-3.42-0.96-5.28C0.83,15.89,1.51,15.73,2.17,15.63z M3.18,20.3c0.67,1.45,1.65,2.76,2.87,3.87
		c-0.66,0.58-1.32,1.34-1.92,2.34c-1.29-1.45-2.31-3.14-2.99-4.99C1.83,21.01,2.51,20.61,3.18,20.3z M3.3,20.24
		c1-0.45,1.97-0.69,2.91-0.72c0.51,1.21,1.31,2.29,2.33,3.2c-0.73,0.25-1.55,0.66-2.39,1.37C4.94,22.98,3.96,21.68,3.3,20.24z
		 M8.64,22.81c0.91,0.78,1.98,1.41,3.17,1.86c-0.39,0.42-0.83,1.08-1.3,2.08c-1.61-0.62-3.05-1.5-4.27-2.58
		C7.08,23.46,7.91,23.05,8.64,22.81z M10.57,26.91c1.65,0.62,3.46,0.96,5.36,0.97v3.99c-2.36-0.01-4.59-0.55-6.6-1.48
		C9.75,28.91,10.17,27.78,10.57,26.91z M16.06,27.88c1.9-0.01,3.71-0.35,5.36-0.97c0.4,0.87,0.82,2,1.23,3.48
		c-2.01,0.93-4.24,1.47-6.6,1.48V27.88z M20.19,24.67c1.19-0.45,2.26-1.08,3.17-1.86c0.73,0.24,1.56,0.65,2.4,1.36
		c-1.21,1.08-2.66,1.96-4.27,2.58C21.02,25.75,20.58,25.09,20.19,24.67z M23.47,22.72c1.02-0.9,1.82-1.99,2.33-3.2
		c0.94,0.03,1.91,0.28,2.91,0.72c-0.67,1.44-1.64,2.74-2.85,3.84C25.02,23.38,24.2,22.96,23.47,22.72z M28.82,20.3
		c0.67,0.31,1.36,0.71,2.05,1.21c-0.69,1.85-1.71,3.54-2.99,4.99c-0.61-1-1.27-1.76-1.92-2.34C27.17,23.05,28.15,21.75,28.82,20.3z
		 M28.87,20.18c0.62-1.37,0.97-2.87,0.97-4.43c0-0.04-0.01-0.08-0.01-0.12c0.66,0.1,1.34,0.26,2.04,0.48
		c-0.01,1.85-0.36,3.62-0.96,5.28C30.22,20.89,29.54,20.49,28.87,20.18z M29.82,15.5c-0.04-1.61-0.43-3.15-1.11-4.54
		c0.7-0.14,1.44-0.22,2.25-0.24c0.58,1.65,0.92,3.41,0.92,5.26C31.17,15.76,30.48,15.6,29.82,15.5z M28.64,10.84
		c-0.71-1.39-1.7-2.65-2.92-3.71c0.79-0.46,1.66-0.83,2.63-1.08c1.09,1.35,1.95,2.89,2.56,4.55C30.12,10.62,29.36,10.7,28.64,10.84z
		 M28.27,5.95c-0.94,0.25-1.83,0.62-2.65,1.1c-1.25-1.06-2.72-1.92-4.35-2.51c0.72-0.97,1.51-1.78,2.4-2.42
		C25.44,3.09,27,4.39,28.27,5.95z M16,0.13c2.73,0,5.31,0.69,7.56,1.92c-0.89,0.65-1.7,1.47-2.41,2.45
		C19.55,3.93,17.82,3.62,16,3.62s-3.55,0.32-5.14,0.88c-0.72-0.98-1.52-1.8-2.41-2.45C10.69,0.82,13.27,0.13,16,0.13z M8.33,2.11
		c0.89,0.64,1.69,1.46,2.4,2.42C9.1,5.13,7.63,5.99,6.38,7.05C5.55,6.57,4.67,6.2,3.73,5.95C5,4.39,6.56,3.09,8.33,2.11z M3.65,6.05
		c0.96,0.26,1.84,0.62,2.63,1.08c-1.22,1.06-2.21,2.32-2.92,3.71c-0.72-0.14-1.48-0.23-2.27-0.24C1.69,8.94,2.56,7.4,3.65,6.05z
		 M4.21,26.6c0.61-1.01,1.27-1.77,1.93-2.35c1.23,1.1,2.69,1.99,4.31,2.61c-0.4,0.88-0.82,2-1.23,3.47
		C7.31,29.43,5.61,28.15,4.21,26.6z M22.78,30.33c-0.41-1.47-0.83-2.6-1.23-3.47c1.62-0.63,3.09-1.52,4.31-2.61
		c0.66,0.58,1.32,1.34,1.93,2.35C26.39,28.15,24.69,29.43,22.78,30.33z"/>
	<path class="st0" d="M13.22,12.19c0,0.04-0.05,0.06-0.07,0.03c-0.46-0.62-2.82-3.72-4.37-4.05C8.59,8.13,8.4,8.18,8.26,8.31
		c-0.48,0.44-1.07,2.6,1.1,7.08c1.03,2.13,2.51,3.31,2.81,3.54c0.03,0.02,0.05,0.04,0.08,0.06c0.1,0.06,0.48,0.28,0.45,0.64
		c0,0-0.42,3.85,4.61,4.92c3.69,0.79,6.56-2.04,6.33-3.75c0,0-0.75-4.26-4.92-5.23c-0.04-0.01-0.06-0.04-0.06-0.07
		c-0.01-0.4-0.12-2.73-1.16-5.2c-1.15-2.72-1.96-4.41-2.95-4.37C13.31,5.98,13.1,10.11,13.22,12.19z"/>
</g>
</svg>
