<svg xmlns="http://www.w3.org/2000/svg" width="100%" height="auto" viewBox="0 0 800 800" version="1.1" preserveAspectRatio="xMidYMid meet" style="max-width: 100%; max-height: 70vh;">
	<path d="M -0 400.001 L -0 800.002 400.250 799.751 L 800.500 799.500 800.751 399.750 L 801.002 0 400.501 0 L 0 0 -0 400.001 M 0.495 400.500 C 0.495 620.500, 0.610 710.351, 0.750 600.169 C 0.890 489.986, 0.890 309.986, 0.750 200.169 C 0.610 90.351, 0.495 180.500, 0.495 400.500 M 465.707 97.472 C 459.908 99.694, 456.266 102.689, 453.384 107.608 C 449.456 114.311, 450.237 119.668, 457.234 134.004 C 464.206 148.288, 468.090 159.335, 471.911 175.747 C 477.310 198.937, 478.952 211.687, 479.864 237.485 L 480.500 255.470 487.500 260.188 C 504.699 271.782, 528.876 296.977, 539.500 314.377 C 540.411 315.868, 541.160 315.790, 547.884 313.494 C 582.729 301.601, 615.892 300.448, 658 309.664 C 673.560 313.070, 683.958 313.226, 690.247 310.148 C 700.300 305.227, 706.299 294.194, 706.367 280.500 C 706.425 268.856, 703.737 262.694, 694.622 253.573 C 686.001 244.947, 680.097 241.674, 667.267 238.406 C 653.532 234.907, 644.731 234.430, 631 236.437 C 610.229 239.473, 592.859 244.648, 572 254.013 C 553.947 262.119, 554 262.098, 554 261.013 C 554 260.456, 554.405 260, 554.901 260 C 555.976 260, 586.161 243.344, 597.500 236.494 C 647.737 206.143, 675.868 178.367, 681.106 153.942 C 686.096 130.674, 670.163 107.575, 643.500 99.423 C 635.445 96.961, 619.739 96.948, 611.500 99.396 C 598.090 103.382, 586 112.072, 575.186 125.500 C 563.642 139.836, 550.221 163.599, 539.982 187.835 C 535.275 198.977, 527.973 213.311, 524.375 218.473 C 522.517 221.138, 522.587 219.668, 524.899 207.498 C 534.102 159.061, 533.851 136.331, 523.942 120.500 C 513.718 104.166, 500.989 97.104, 480.500 96.397 C 472.511 96.122, 468.462 96.416, 465.707 97.472 M 384.725 243.566 C 371.122 246.862, 360.075 254.053, 345.446 269.135 C 333.477 281.475, 307 314.598, 307 317.232 C 307 317.495, 309.813 319.661, 313.250 322.045 C 324.797 330.054, 336.406 340.019, 350.837 354.306 C 366.535 369.847, 373.805 379.025, 374.678 384.401 C 376.357 394.749, 368.755 400.003, 359.210 395.090 C 357.170 394.040, 351.437 389.428, 346.471 384.840 C 333.304 372.678, 327.358 367.758, 309.211 354.015 C 299.924 346.982, 292.570 342.070, 292.103 342.589 C 290.193 344.717, 247.863 413.320, 225.520 450.500 C 207.714 480.131, 166 550.856, 166 551.416 C 166 551.602, 163.257 556.647, 159.905 562.627 C 143.272 592.302, 127.567 625.032, 118.538 648.841 C 110.658 669.622, 108.949 683.801, 113.327 692.093 C 120.091 704.906, 134.306 706.342, 161.685 696.978 C 186.853 688.369, 207.429 678.158, 240.500 657.864 C 263.658 643.654, 288.468 626.738, 288.703 625 C 288.814 624.175, 286.114 621.162, 282.703 618.304 C 272.098 609.419, 232.587 575.693, 230.865 574.055 C 228.157 571.480, 225.008 565.649, 225.004 563.205 C 225.002 561.942, 226.105 559.805, 227.455 558.455 C 230.447 555.462, 234.820 555.281, 240.609 557.910 C 249.858 562.110, 290.573 591.039, 307.823 605.666 C 311.435 608.729, 314.651 610.733, 315.323 610.341 C 318.550 608.459, 363.913 577.689, 373.500 570.879 C 390.050 559.124, 391.617 557.678, 390.465 555.223 C 387.563 549.041, 342.521 500.491, 317.924 477.032 C 300.585 460.496, 298.010 457.301, 298.004 452.323 C 297.999 448.463, 301.860 445, 306.168 445 C 316.508 445, 349.772 471.657, 391.638 513.492 L 416.776 538.612 431.638 527.225 C 491.162 481.618, 531.410 443.853, 543.253 422.494 C 550.749 408.975, 554.766 393.105, 553.668 381.346 C 551.613 359.338, 531.519 328.938, 493.068 289.663 C 463.868 259.838, 443.267 247.377, 416 243.047 C 407.056 241.627, 391.674 241.882, 384.725 243.566" stroke="none" fill="black" fill-rule="evenodd"/>
</svg>